<?xml version="1.0" encoding="UTF-8"?>
<!DOCTYPE svg PUBLIC "-//W3C//DTD SVG 1.1//EN" "http://www.w3.org/Graphics/SVG/1.1/DTD/svg11.dtd">
<!-- Creator: CorelDRAW 2021 (64-Bit) -->
<svg xmlns="http://www.w3.org/2000/svg" xml:space="preserve" width="91px" height="91px" version="1.1" style="shape-rendering:geometricPrecision; text-rendering:geometricPrecision; image-rendering:optimizeQuality; fill-rule:evenodd; clip-rule:evenodd"
viewBox="0 0 91 91"
 xmlns:xlink="http://www.w3.org/1999/xlink"
 xmlns:xodm="http://www.corel.com/coreldraw/odm/2003">
 <defs>
  <style type="text/css">
   <![CDATA[
    .fil4 {fill:none}
    .fil1 {fill:#FFD00F}
    .fil3 {fill:#E31E28}
    .fil0 {fill:#F39D25}
    .fil5 {fill:#0DB8E9}
    .fil2 {fill:#2DA83E}
    .fil6 {fill:#0B66AE}
    .fil7 {fill:#333A8B}
   ]]>
  </style>
 </defs>
 <g id="Слой_x0020_1">
  <metadata id="CorelCorpID_0Corel-Layer"/>
  <g id="эмблема_Rainbow">
   <g>
    <g>
     <polygon class="fil0" points="16.28,37.62 19.82,39.39 22.38,55.09 18.83,53.31 "/>
     <polygon class="fil0" points="18.83,53.31 22.38,55.09 4.16,55.09 0.61,53.31 "/>
     <polygon class="fil0" points="44.41,2.6 47.96,4.37 47.64,4.43 47.17,4.51 46.56,4.61 45.82,4.73 44.97,4.89 44.01,5.08 42.96,5.31 41.83,5.6 40.63,5.93 39.37,6.32 38.07,6.77 36.72,7.29 35.36,7.88 33.98,8.54 32.59,9.29 31.22,10.13 29.87,11.05 28.55,12.08 27.27,13.2 26.05,14.43 24.89,15.78 23.82,17.24 22.83,18.82 21.94,20.53 21.16,22.38 20.51,24.36 19.99,26.48 19.62,28.75 19.41,31.17 19.36,33.75 19.5,36.49 19.82,39.39 16.28,37.62 15.95,34.72 15.82,31.98 15.86,29.4 16.08,26.98 16.45,24.71 16.97,22.59 17.62,20.61 18.4,18.76 19.29,17.05 20.27,15.47 21.35,14.01 22.51,12.66 23.73,11.43 25,10.3 26.32,9.28 27.68,8.35 29.05,7.52 30.43,6.77 31.81,6.11 33.18,5.51 34.52,5 35.83,4.55 37.09,4.16 38.29,3.82 39.42,3.54 40.47,3.31 41.43,3.12 42.28,2.96 43.01,2.83 43.62,2.74 44.09,2.66 "/>
    </g>
    <path class="fil0" d="M16.28 37.62l2.55 15.69 -18.22 0c-4.52,-29.24 18.57,-52.12 43.8,-50.71 -2.57,0.57 -32.67,3.1 -28.13,35.02z"/>
    <g>
     <polygon class="fil1" points="32.68,36.61 36.22,38.38 19.64,38.38 16.1,36.61 "/>
     <polygon class="fil1" points="44.41,2.6 47.96,4.37 46.92,4.52 45.93,4.7 44.97,4.92 44.06,5.18 43.19,5.48 42.35,5.8 41.55,6.16 40.8,6.55 40.08,6.97 39.4,7.42 38.76,7.89 38.15,8.39 37.59,8.92 37.06,9.47 36.56,10.04 36.11,10.64 35.69,11.25 35.3,11.89 34.96,12.54 34.64,13.21 34.37,13.89 34.12,14.59 33.92,15.3 33.74,16.02 33.61,16.75 33.5,17.5 33.43,18.25 33.39,19 33.39,19.77 33.42,20.53 33.48,21.31 33.57,22.08 30.03,20.31 29.93,19.53 29.87,18.76 29.84,18 29.85,17.23 29.89,16.47 29.96,15.72 30.06,14.98 30.2,14.25 30.38,13.53 30.58,12.82 30.82,12.12 31.1,11.43 31.41,10.77 31.76,10.12 32.15,9.48 32.56,8.87 33.02,8.27 33.51,7.7 34.04,7.15 34.61,6.62 35.21,6.12 35.86,5.65 36.54,5.2 37.25,4.78 38.01,4.39 38.81,4.03 39.64,3.7 40.52,3.41 41.43,3.15 42.38,2.93 43.38,2.75 "/>
     <polygon class="fil1" points="30.03,20.31 33.57,22.08 33.64,22.55 33.71,23.03 33.78,23.52 33.86,24.02 33.93,24.52 34.01,25.03 34.09,25.54 34.18,26.06 34.26,26.59 34.35,27.12 34.44,27.65 34.53,28.18 34.62,28.72 34.71,29.25 34.8,29.79 34.89,30.33 34.98,30.86 35.08,31.4 35.17,31.93 35.26,32.46 35.35,32.99 35.43,33.51 35.52,34.03 35.61,34.54 35.69,35.05 35.77,35.55 35.86,36.04 35.93,36.53 36.01,37.01 36.08,37.47 36.15,37.93 36.22,38.38 32.68,36.61 32.61,36.16 32.54,35.7 32.47,35.23 32.39,34.76 32.31,34.27 32.23,33.78 32.15,33.28 32.06,32.77 31.98,32.26 31.89,31.74 31.8,31.22 31.71,30.69 31.62,30.16 31.53,29.63 31.44,29.09 31.35,28.56 31.26,28.02 31.17,27.48 31.08,26.95 30.99,26.41 30.9,25.88 30.81,25.34 30.72,24.82 30.64,24.29 30.55,23.77 30.47,23.26 30.39,22.75 30.31,22.24 30.24,21.75 30.16,21.26 30.09,20.78 "/>
    </g>
    <path class="fil1" d="M32.68 36.61l-16.58 0c-6.89,-31.89 28.31,-34.01 28.31,-34.01 -11.25,1.36 -15.55,9.45 -14.38,17.71 0.7,4.98 1.94,11.58 2.65,16.3z"/>
    <g>
     <polygon class="fil2" points="30.21,20.31 33.75,22.09 50.61,22.09 47.07,20.31 "/>
     <polygon class="fil2" points="47.07,20.31 50.61,22.09 50.58,21.92 50.54,21.67 50.49,21.36 50.43,20.99 50.35,20.55 50.27,20.07 50.18,19.53 50.08,18.95 49.98,18.33 49.87,17.67 49.76,16.99 49.64,16.28 49.52,15.55 49.4,14.81 49.27,14.05 49.14,13.29 49.02,12.53 48.89,11.78 48.77,11.03 48.65,10.3 48.53,9.59 48.42,8.9 48.31,8.23 48.2,7.61 48.11,7.02 48.02,6.47 47.93,5.97 47.86,5.53 47.8,5.14 47.74,4.81 47.7,4.56 47.67,4.37 44.13,2.6 44.16,2.78 44.2,3.04 44.26,3.37 44.32,3.76 44.39,4.2 44.47,4.7 44.56,5.25 44.66,5.84 44.76,6.46 44.87,7.12 44.99,7.81 45.1,8.53 45.23,9.26 45.35,10.01 45.48,10.76 45.6,11.52 45.73,12.28 45.85,13.04 45.98,13.78 46.1,14.51 46.22,15.22 46.33,15.9 46.44,16.56 46.54,17.18 46.64,17.76 46.73,18.29 46.81,18.78 46.88,19.22 46.95,19.59 47,19.9 47.04,20.14 "/>
    </g>
    <path class="fil2" d="M44.13 2.6c-0.2,0.02 -16.51,2.23 -13.92,17.71l16.86 0c-0.25,-1.4 -2.69,-16.13 -2.94,-17.71z"/>
   </g>
   <g>
    <g>
     <polygon class="fil3" points="47.09,20.79 50.63,22.57 34.19,22.57 30.65,20.79 "/>
     <polygon class="fil3" points="30.65,20.79 34.19,22.57 36.88,39.01 33.34,37.23 "/>
     <polygon class="fil3" points="19.59,53.67 23.13,55.44 20.44,39.01 16.9,37.23 "/>
     <polygon class="fil3" points="16.9,37.23 20.44,39.01 36.88,39.01 33.34,37.23 "/>
     <polygon class="fil3" points="47.09,20.79 50.63,22.57 53.32,39.01 49.77,37.23 "/>
    </g>
    <g>
     <line class="fil4" x1="47.09" y1="20.79" x2="49.77" y2= "37.23" />
     <polyline class="fil4" points="19.59,53.67 16.9,37.23 33.34,37.23 "/>
     <polyline class="fil4" points="47.09,20.79 30.65,20.79 33.34,37.23 "/>
    </g>
    <g>
     <polygon class="fil3" points="38.71,70.11 42.26,71.88 58.7,71.88 55.15,70.11 "/>
     <polygon class="fil3" points="68.9,53.67 72.45,55.44 56.01,55.44 52.46,53.67 "/>
     <polygon class="fil3" points="38.71,70.11 42.26,71.88 39.57,55.44 36.02,53.67 "/>
     <polygon class="fil3" points="66.21,37.23 69.76,39.01 72.45,55.44 68.9,53.67 "/>
     <polygon class="fil3" points="55.15,70.11 58.7,71.88 56.01,55.44 52.46,53.67 "/>
    </g>
    <g>
     <line class="fil4" x1="55.15" y1="70.11" x2="52.46" y2= "53.67" />
     <line class="fil4" x1="66.21" y1="37.23" x2="68.9" y2= "53.67" />
     <line class="fil4" x1="38.71" y1="70.11" x2="36.02" y2= "53.67" />
     <line class="fil4" x1="68.9" y1="53.67" x2="52.46" y2= "53.67" />
     <line class="fil4" x1="38.71" y1="70.11" x2="55.15" y2= "70.11" />
    </g>
   </g>
   <g>
    <g>
     <polygon class="fil5" points="41.69,88.27 45.23,90.04 45.3,90.03 45.45,90.01 45.68,89.97 45.99,89.91 46.37,89.83 46.81,89.73 47.31,89.6 47.86,89.44 48.44,89.26 49.07,89.04 49.73,88.8 50.41,88.51 51.1,88.19 51.81,87.83 52.53,87.43 53.24,86.98 53.94,86.49 54.63,85.96 55.3,85.37 55.94,84.73 56.55,84.04 57.11,83.29 57.63,82.49 58.1,81.62 58.51,80.7 58.85,79.71 59.12,78.65 59.31,77.53 59.41,76.34 59.43,75.08 59.34,73.74 59.15,72.33 55.61,70.56 55.8,71.97 55.88,73.31 55.87,74.57 55.77,75.76 55.57,76.88 55.3,77.94 54.96,78.93 54.56,79.85 54.09,80.72 53.57,81.52 53,82.27 52.4,82.96 51.76,83.6 51.09,84.19 50.4,84.72 49.7,85.21 48.98,85.66 48.27,86.06 47.56,86.42 46.86,86.74 46.18,87.02 45.53,87.27 44.9,87.49 44.31,87.67 43.77,87.83 43.27,87.96 42.83,88.06 42.45,88.14 42.14,88.2 41.91,88.24 41.76,88.26 "/>
    </g>
    <path class="fil5" d="M41.69 88.27c0.2,-0.02 16.51,-2.23 13.92,-17.71l-16.86 0c0.25,1.4 2.69,16.13 2.94,17.71z"/>
    <g>
     <polygon class="fil6" points="69.72,54.26 73.27,56.03 73.79,58.94 74.08,61.67 74.16,64.24 74.03,66.65 73.71,68.91 73.21,71.01 72.56,72.98 71.75,74.8 70.81,76.49 69.75,78.05 68.59,79.49 67.34,80.81 66.01,82.01 64.61,83.11 63.17,84.1 61.69,85 60.2,85.8 58.69,86.51 57.2,87.14 55.73,87.69 54.29,88.17 52.91,88.58 51.59,88.93 50.35,89.21 49.2,89.45 48.15,89.64 47.23,89.78 46.45,89.89 45.82,89.96 45.35,90.01 45.05,90.04 44.95,90.04 41.41,88.27 41.51,88.26 41.8,88.24 42.27,88.19 42.91,88.12 43.69,88.01 44.61,87.87 45.65,87.68 46.8,87.44 48.04,87.15 49.36,86.81 50.75,86.4 52.19,85.92 53.66,85.37 55.15,84.74 56.65,84.03 58.15,83.22 59.63,82.33 61.07,81.34 62.46,80.24 63.79,79.04 65.05,77.72 66.21,76.28 67.27,74.72 68.21,73.03 69.01,71.21 69.67,69.24 70.17,67.14 70.49,64.88 70.62,62.47 70.54,59.9 70.25,57.17 "/>
    </g>
    <path class="fil6" d="M53.14 54.26c5.35,0 11.24,0 16.58,0 6.9,31.89 -28.31,34.01 -28.31,34.01 11.25,-1.36 15.55,-9.45 14.39,-17.71 -0.71,-4.98 -1.95,-11.58 -2.66,-16.3z"/>
    <g>
     <polygon class="fil7" points="85.21,37.56 88.75,39.33 89.1,42.05 89.28,44.73 89.32,47.37 89.2,49.96 88.95,52.5 88.55,54.99 88.02,57.42 87.36,59.79 86.58,62.09 85.68,64.33 84.66,66.5 83.53,68.59 82.3,70.61 80.96,72.55 79.53,74.41 78.01,76.18 76.4,77.86 74.7,79.44 72.93,80.93 71.09,82.32 69.18,83.61 67.2,84.79 65.17,85.86 63.08,86.82 60.94,87.67 58.75,88.39 56.52,88.99 54.26,89.47 51.97,89.81 49.65,90.03 47.31,90.1 44.95,90.04 41.41,88.27 43.77,88.33 46.11,88.25 48.43,88.04 50.72,87.69 52.98,87.22 55.21,86.62 57.39,85.89 59.53,85.05 61.62,84.09 63.66,83.02 65.63,81.84 67.55,80.55 69.39,79.16 71.16,77.67 72.86,76.09 74.47,74.41 75.99,72.64 77.42,70.78 78.76,68.84 79.99,66.82 81.12,64.73 82.14,62.56 83.04,60.32 83.82,58.01 84.48,55.64 85.01,53.21 85.4,50.73 85.66,48.19 85.77,45.6 85.74,42.96 85.55,40.28 "/>
    </g>
    <path class="fil7" d="M69.54 53.25l-2.55 -15.69 18.22 0c4.52,29.24 -18.57,52.12 -43.8,50.71 2.57,-0.57 32.67,-3.1 28.13,-35.02z"/>
   </g>
  </g>
 </g>
</svg>
