<?xml version="1.0" encoding="UTF-8"?>
<!DOCTYPE svg PUBLIC "-//W3C//DTD SVG 1.1//EN" "http://www.w3.org/Graphics/SVG/1.1/DTD/svg11.dtd">
<!-- Creator: CorelDRAW 2021 (64-Bit) -->
<svg xmlns="http://www.w3.org/2000/svg" xml:space="preserve" width="80px" height="80px" version="1.1" style="shape-rendering:geometricPrecision; text-rendering:geometricPrecision; image-rendering:optimizeQuality; fill-rule:evenodd; clip-rule:evenodd"
viewBox="0 0 80 80"
 xmlns:xlink="http://www.w3.org/1999/xlink"
 xmlns:xodm="http://www.corel.com/coreldraw/odm/2003">
 <defs>
  <style type="text/css">
   <![CDATA[
    .str0 {stroke:#2B2A29;stroke-width:0.288;stroke-miterlimit:22.9256}
    .fil0 {fill:#727271}
   ]]>
  </style>
 </defs>
 <g id="Слой_x0020_1">
  <metadata id="CorelCorpID_0Corel-Layer"/>
  <path class="fil0 str0" d="M52.917 46.266l0 2.472c0,1.828 -1.774,6.681 -5.736,14.493 -2.7,5.325 -5.284,9.625 -7.91,9.611 -2.549,-0.013 -5.318,-4.01 -7.788,-9.091 -3.841,-7.902 -5.567,-12.872 -5.567,-14.75l0 -2.49 1.548 -0.804c0.01,-0.005 0.02,-0.012 0.027,-0.02 3.897,-1.739 -2.497,-5.741 -0.613,-6.293 -0.041,-0.404 5.433,2.622 5.555,2.687 2.038,1.092 4.289,2.208 6.644,2.184 2.508,-0.026 4.857,-1.239 6.954,-2.333 1.423,-0.741 4.074,-2.5 5.729,-2.593 1.925,0.207 -4.737,4.304 -0.409,6.081l1.566 0.846zm-1.51 -9.328c-1.532,0.448 -3.267,1.513 -5.439,2.612 -2.074,1.048 -4.252,2.099 -6.503,2.204 -2.381,0.112 -4.632,-0.817 -6.585,-1.799 -2.051,-1.03 -3.779,-2.168 -5.429,-2.872l-0.605 -0.301c-0.34,-0.175 -0.667,-0.371 -0.93,-0.532l0 -1.685c-1.077,-4.324 -2.118,-8.382 -3.226,-12.083 -1.036,-3.46 -2.145,-6.657 -3.217,-9.643 -0.799,-0.136 -1.467,-0.476 -2.017,-1.003 -0.54,-0.518 -0.812,-1.138 -0.812,-1.878 0,-0.732 0.242,-1.334 0.738,-1.813 0.499,-0.48 1.101,-0.699 1.799,-0.626 0.735,0.076 1.354,0.442 1.843,1.081 0.501,0.655 0.744,1.373 0.744,2.105 0,0.761 -0.069,1.238 -0.192,1.43 -0.26,0.177 -0.479,0.327 -0.634,0.497 2.957,4.922 5.919,10.959 8.88,17.971 -0.168,-3.328 -0.337,-6.628 -0.501,-9.885 -0.164,-3.229 -0.334,-6.436 -0.498,-9.6 -0.598,-0.185 -1.171,-0.664 -1.725,-1.437 -0.536,-0.748 -0.817,-1.564 -0.817,-2.503 0,-0.882 0.284,-1.625 0.817,-2.233 0.557,-0.636 1.145,-0.935 1.775,-0.889 0.734,0.053 1.354,0.453 1.853,1.244 0.509,0.809 0.757,1.771 0.757,2.866 0,0.932 -0.086,1.662 -0.415,2.07 -0.34,0.422 -0.653,0.654 -0.776,0.825 0.945,3.186 1.905,6.504 2.839,9.928 0.955,3.502 1.894,7.097 2.843,10.681 0.397,-3.435 0.795,-6.948 1.191,-10.475 0.398,-3.556 0.798,-7.176 1.2,-10.803 -0.548,-0.334 -0.961,-0.906 -1.25,-1.671 -0.286,-0.756 -0.434,-1.636 -0.434,-2.646 0,-1.201 0.264,-2.229 0.794,-3.051 0.529,-0.821 1.15,-1.244 1.848,-1.244 0.844,0 1.526,0.412 2.035,1.195 0.517,0.795 0.776,1.821 0.776,3.072 0,1.116 -0.211,2.026 -0.625,2.767 -0.42,0.752 -0.826,1.251 -1.236,1.478 0.442,3.628 0.883,7.212 1.327,10.753 0.441,3.507 0.885,6.941 1.333,10.326 0.94,-3.591 1.866,-7.129 2.82,-10.603 0.926,-3.375 1.88,-6.628 2.82,-9.757 -0.456,-0.37 -0.77,-0.767 -0.94,-1.195 -0.172,-0.432 -0.26,-1.017 -0.26,-1.735 0,-1.209 0.283,-2.191 0.835,-2.916 0.547,-0.718 1.151,-1.093 1.784,-1.138 0.767,-0.054 1.376,0.268 1.867,0.939 0.477,0.652 0.716,1.365 0.716,2.169 0,1.003 -0.247,1.846 -0.744,2.581 -0.492,0.73 -1.09,1.224 -1.788,1.43 -0.169,3.037 -0.339,6.109 -0.502,9.202 -0.165,3.129 -0.334,6.287 -0.498,9.473 2.957,-6.671 5.919,-12.417 8.88,-17.153 -0.324,-0.349 -0.513,-0.599 -0.584,-0.711 -0.18,-0.286 -0.265,-0.676 -0.265,-1.152 0,-0.761 0.263,-1.511 0.827,-2.198 0.544,-0.664 1.149,-1.027 1.784,-1.088 0.765,-0.074 1.38,0.173 1.866,0.704 0.477,0.521 0.726,1.138 0.726,1.842 0,0.882 -0.293,1.537 -0.853,1.984 -0.562,0.448 -1.274,0.775 -2.159,0.932 -1.059,2.958 -2.155,6.127 -3.176,9.529 -1.088,3.624 -2.118,7.581 -3.172,11.77l0 2.072 -0.006 0.008 -0.036 0.014 -1.468 0.564zm-9.031 11.757c-1.004,-0.576 -2.003,-1.308 -3.003,-2.297 -1.022,1.039 -2.094,1.704 -3.111,2.337 0.986,1.664 2.025,3.346 3.011,4.668 1.031,-1.358 2.067,-2.965 3.103,-4.708zm9.15 1.238c0,-0.797 0,-1.586 0,-2.39 -1.493,0.882 -3.144,2.519 -5.344,4.324 -1.946,1.596 -4.146,3.445 -6.64,3.67 -2.403,0.216 -4.742,-1.295 -6.694,-2.888 -2.228,-1.817 -3.934,-3.712 -5.567,-4.985 0,0.896 0,1.785 0,2.674 1.469,0.925 3.113,2.718 5.375,4.623 1.982,1.669 4.3,3.301 6.717,3.136 2.574,-0.176 4.848,-2.14 6.836,-3.833 2.258,-1.923 3.888,-3.563 5.317,-4.331z"/>
 </g>
</svg>
